<svg xmlns="http://www.w3.org/2000/svg" viewBox="320 295 400 450" version="1.1">
<defs>
  <clipPath id="fx-iris">
    <circle cx="578" cy="391" r="21"/>
  </clipPath>
</defs>
	<path d="M 410.455 307.455 C 405.481 312.428, 409.010 321, 416.031 321 C 418.167 321, 420.102 320.052, 422.154 318 L 425.154 315 457.827 315.021 L 490.500 315.042 484 317.359 C 470.045 322.334, 456.932 329.869, 444.334 340.151 L 437.167 346 402.084 346 C 367.746 346, 367 346.042, 367 347.987 C 367 349.923, 367.830 349.980, 399.981 350.237 L 432.962 350.500 428.400 356.250 L 423.838 362 413.419 362 C 403.667 362, 403 362.128, 403 364 C 403 365.853, 403.667 366, 412.057 366 L 421.113 366 418.507 370.250 C 417.073 372.587, 413.669 378.887, 410.941 384.250 L 405.982 394 375.646 394 C 346.580 394, 345.234 393.916, 343.500 392 C 339.927 388.051, 332 390.840, 332 396.045 C 332 398.706, 336.322 403, 339 403 C 340.150 403, 342.216 401.875, 343.591 400.500 L 346.091 398 375.490 398 L 404.890 398 402.579 403.250 C 401.308 406.137, 393.145 429.977, 384.439 456.227 L 368.609 503.955 348.794 523.681 C 332.753 539.649, 329.220 543.649, 330.250 544.679 C 331.780 546.209, 332.642 545.481, 352.220 526.140 L 365.940 512.587 359.538 532.043 C 349.383 562.903, 342 586.840, 342 588.903 C 342 590.903, 406.955 655.229, 409.575 655.823 C 410.797 656.101, 411 646.909, 411 591.316 L 411 526.484 434.758 502.742 C 447.824 489.684, 458.849 479, 459.258 479 C 459.666 479, 460 503.856, 460 534.236 L 460 589.471 447 576.500 L 434 563.529 434 554.832 C 434 546.886, 434.181 546.077, 436.091 545.471 C 438.562 544.687, 441.253 538.883, 440.341 536.306 C 438.083 529.925, 430.960 527.950, 426.455 532.455 C 422.964 535.945, 423.176 540.427, 427 544 C 429.920 546.728, 430 547.052, 430 556.164 L 430 565.525 445 580.500 L 460 595.475 460 645.285 L 460 695.096 457.333 697.390 C 453.654 700.554, 453.679 705.467, 457.389 708.658 C 458.886 709.946, 461.146 711, 462.410 711 C 465.766 711, 470 706.669, 470 703.236 C 470 700.456, 466.897 696, 464.961 696 C 464.360 696, 464 677.949, 464 647.758 L 464 599.516 488 623.500 L 512 647.484 512 684.742 C 512 721.333, 512.036 722, 514 722 C 515.962 722, 516 721.333, 516 686.766 L 516 651.531 527.913 663.413 C 539.152 674.623, 539.796 675.481, 539.294 678.574 C 538.284 684.800, 545.513 689.130, 550.770 685.449 C 554.489 682.844, 555.229 680.484, 553.571 676.516 C 551.977 672.700, 548.559 670.780, 545.012 671.707 C 543.198 672.181, 540.450 669.928, 529.405 658.905 L 516 645.528 516 618.199 L 516 590.871 519 588.347 C 522.802 585.148, 523.013 580.922, 519.545 577.455 C 516.209 574.119, 512.532 574.314, 508.821 578.025 C 505.269 581.578, 505.505 585.095, 509.538 588.702 L 512 590.904 512 616.194 L 512 641.484 488 617.500 L 464 593.516 464 543.758 C 464 516.391, 464.353 494, 464.785 494 C 465.217 494, 466.961 496.813, 468.661 500.250 C 470.361 503.688, 473.916 509.425, 476.562 513 C 479.207 516.575, 510.982 549.211, 547.172 585.524 L 612.972 651.547 593.727 670.774 C 583.142 681.348, 574.148 690, 573.741 690 C 573.333 690, 573 685.159, 573 679.241 L 573 668.483 551.021 646.521 C 534.225 629.738, 528.765 624.835, 527.870 625.730 C 526.460 627.140, 533.782 635.461, 554.931 656.487 L 569 670.473 569 684.737 C 569 695.497, 569.307 698.992, 570.250 698.969 C 570.938 698.951, 582.075 688.390, 595 675.499 L 618.500 652.060 618.421 632.780 C 618.350 615.407, 616.478 595.479, 614.329 589.237 C 614.001 588.282, 619.761 593.462, 627.129 600.750 C 634.498 608.038, 641.145 614, 641.901 614 C 644.799 614, 641.081 588.110, 636.014 573 C 634.815 569.425, 631.422 561.325, 628.474 555 C 617.593 531.655, 615.031 523.235, 614.321 508.500 C 613.327 487.878, 617.530 477.624, 633.892 460.750 L 644.317 450 666.158 450 C 686.460 450, 688.137 450.137, 689.945 451.945 C 691.832 453.832, 694.271 460.595, 695.579 467.570 C 696.362 471.745, 697.330 471.255, 700.445 465.108 C 708.956 448.313, 708.127 426.901, 698.342 410.754 C 690.849 398.388, 676.186 386.220, 660.594 379.428 L 654.247 376.663 653.709 370.726 C 652.904 361.854, 648.321 353.388, 640.387 346.118 C 626.121 333.045, 595.789 321.304, 558 314.226 C 544.716 311.738, 543.545 311.691, 484.757 311.279 L 425.014 310.860 422.084 307.930 C 418.347 304.193, 413.898 304.011, 410.455 307.455 M 413.040 310.452 C 410.385 313.650, 414.283 318.566, 417.750 316.393 C 419.945 315.017, 420.615 311.005, 418.837 309.878 C 416.810 308.593, 414.383 308.833, 413.040 310.452 M 506.500 316.109 C 493.170 318.029, 467.359 327.452, 463.852 331.678 C 462.945 332.771, 470.920 333, 509.878 333 C 556.333 333, 557 333.028, 557 335 C 557 336.974, 556.333 337, 506.163 337 L 455.326 337 449.413 341.250 L 443.500 345.500 451.815 345.791 C 459.031 346.044, 460.087 346.309, 459.804 347.791 C 459.525 349.247, 457.965 349.542, 449.286 349.784 L 439.095 350.069 434.547 355.267 C 432.046 358.126, 430 360.811, 430 361.233 C 430 361.655, 443.950 362, 461 362 C 491.333 362, 492 362.043, 492 364 C 492 365.959, 491.333 366, 459.090 366 L 426.179 366 422.213 372.281 C 418.445 378.246, 411 392.332, 411 393.494 C 411 393.794, 441.506 394.012, 478.790 393.979 C 543.861 393.922, 546.586 393.846, 546.719 392.081 C 546.834 390.548, 545.835 390.127, 540.708 389.546 C 537.325 389.164, 530.383 387.513, 525.280 385.879 C 516.243 382.984, 515.579 382.917, 499.751 383.318 C 490.813 383.544, 482.043 384.065, 480.262 384.476 C 477.730 385.060, 476.887 384.869, 476.400 383.599 C 476.057 382.706, 476.332 381.305, 477.011 380.487 C 478.027 379.262, 481.747 379, 498.101 379 C 516.910 379, 518.368 379.139, 525.729 381.631 C 530.003 383.078, 536.474 384.484, 540.110 384.755 C 546.641 385.243, 546.725 385.217, 547.232 382.566 C 547.614 380.571, 547.394 380.019, 546.372 380.411 C 545.618 380.700, 545 380.573, 545 380.129 C 545 379.684, 543.087 378.716, 540.750 377.978 C 532.192 375.276, 513.962 365.117, 514.015 363.080 C 514.024 362.761, 514.414 361.895, 514.882 361.156 C 515.549 360.104, 516.796 360.568, 520.617 363.289 C 523.303 365.201, 527.750 367.881, 530.500 369.244 C 537.601 372.765, 550.546 376.693, 549.507 375.012 C 549.235 374.570, 549.712 373.941, 550.569 373.612 C 551.426 373.283, 551.887 372.626, 551.594 372.152 C 550.900 371.028, 554.867 367.422, 557.765 366.543 C 559.010 366.165, 559.817 365.513, 559.557 365.093 C 559.298 364.673, 552.317 362.793, 544.044 360.915 C 531.687 358.110, 529.002 357.188, 529.001 355.750 C 529 353.545, 530.030 353.561, 540.211 355.922 C 553.656 359.039, 572.960 362.229, 574.591 361.603 C 575.423 361.284, 575.884 361.379, 575.614 361.815 C 575.345 362.251, 576.698 362.652, 578.620 362.706 C 582.133 362.806, 588.055 364.752, 589.014 366.121 C 589.297 366.525, 596.047 368.493, 604.014 370.495 C 611.981 372.496, 618.852 374.478, 619.283 374.900 C 619.713 375.321, 619.804 376.348, 619.484 377.182 C 618.976 378.505, 617.676 378.402, 609.265 376.369 C 603.964 375.087, 599.415 374.251, 599.156 374.511 C 598.896 374.770, 598.055 374.460, 597.286 373.822 C 596.194 372.916, 595.954 372.972, 596.194 374.077 C 596.362 374.856, 597.041 375.944, 597.701 376.496 C 599.516 378.013, 600.228 387.585, 598.975 393.620 C 598.364 396.564, 597.807 399.316, 597.738 399.736 C 597.669 400.156, 596.815 401.356, 595.841 402.401 C 594.866 403.447, 594.351 404.797, 594.695 405.401 C 595.039 406.006, 595.011 406.225, 594.633 405.890 C 594.255 405.554, 592.352 406.740, 590.403 408.525 C 588.454 410.310, 584.378 412.551, 581.343 413.505 C 576.226 415.115, 574.760 415.142, 565.500 413.792 C 564.400 413.631, 562.905 412.938, 562.179 412.250 C 561.452 411.563, 560.214 411, 559.429 411 C 558.643 411, 557.997 410.663, 557.993 410.250 C 557.989 409.837, 556.414 408.429, 554.493 407.121 C 552.572 405.813, 551 404.318, 551 403.800 C 551 403.281, 550.321 402.178, 549.491 401.348 C 548.661 400.518, 548.237 399.425, 548.550 398.919 C 548.890 398.370, 539.230 398, 524.531 398 L 499.943 398 493.734 401.135 C 479.990 408.072, 467.957 424.844, 464.413 442 C 462.874 449.449, 462.424 466.077, 463.576 472.925 C 464.530 478.594, 468.861 492.168, 470.938 496 L 472.836 499.500 473.983 496.513 C 477.798 486.581, 493.291 468.229, 503.794 461.201 C 508.365 458.142, 509.280 457.853, 510.502 459.079 C 511.723 460.305, 510.748 461.371, 503.383 466.861 C 491.120 476, 480.917 489.336, 477.050 501.277 C 475.871 504.917, 475.965 505.236, 479.619 510.027 C 481.705 512.762, 483.881 514.995, 484.455 514.989 C 485.030 514.984, 496.703 503.696, 510.396 489.905 L 535.293 464.831 525.896 455.379 C 517.827 447.262, 516.147 446.010, 514 446.515 C 510.087 447.437, 496.561 455.904, 491.329 460.707 C 486.792 464.872, 484 465.627, 484 462.688 C 484 460.089, 501.139 447.256, 508.909 444.038 C 510.609 443.334, 512 442.446, 512 442.066 C 512 441.685, 510.747 440.173, 509.215 438.706 L 506.429 436.037 500.465 438.870 C 497.184 440.428, 492.318 443.376, 489.652 445.420 C 486.985 447.464, 484.720 448.994, 484.619 448.818 C 484.517 448.643, 483.885 447.777, 483.214 446.894 C 482.171 445.521, 482.773 444.770, 487.342 441.736 C 495.939 436.028, 505.020 431.788, 507.380 432.381 C 508.552 432.675, 515.999 439.508, 523.928 447.566 L 538.345 462.216 550.340 450.108 C 556.937 443.449, 562.723 438, 563.199 438 C 566.765 438, 560.358 445.166, 525.818 479.810 L 486.625 519.120 550.002 582.502 C 584.859 617.362, 613.743 645.659, 614.189 645.383 C 616.352 644.046, 614.313 611.246, 610.966 593.543 L 608.845 582.327 587.923 561.423 L 567 540.518 567 558.328 L 567 576.139 564.750 575.820 C 562.512 575.502, 562.499 575.389, 562.230 555.438 L 561.960 535.376 546.230 519.938 L 530.500 504.500 530.230 525.750 C 529.972 546.101, 529.877 547, 527.999 547 C 526.795 547, 525.826 546.131, 525.488 544.750 C 525.185 543.513, 525.064 531.025, 525.219 517 L 525.500 491.500 527.750 491.180 C 529.752 490.896, 529.996 491.282, 529.959 494.680 C 529.921 498.321, 530.658 499.211, 545.709 513.675 L 561.500 528.849 562.207 521.675 C 564.286 500.592, 567.731 488.913, 575.588 476.307 C 583.083 464.281, 599.337 449.354, 614.892 440.209 L 619.500 437.500 614.500 437.222 C 611.750 437.069, 605.908 437.566, 601.517 438.327 C 592.461 439.896, 587.927 439.162, 585.529 435.739 C 583.133 432.317, 583.663 428.453, 587.060 424.584 C 590.881 420.233, 597.772 417.596, 609.299 416.074 C 614.138 415.435, 619.313 414.385, 620.799 413.740 C 628.665 410.326, 633.730 403.340, 636.073 392.672 C 637.132 387.851, 638.127 386.123, 641.831 382.672 C 644.294 380.377, 647.193 377.659, 648.274 376.630 C 649.879 375.103, 650.127 373.943, 649.626 370.290 C 647.554 355.173, 635.724 344.032, 610.554 333.496 C 578.097 319.909, 532.732 312.328, 506.500 316.109 M 566.004 329.750 C 566.006 330.890, 568.267 332.668, 572.495 334.855 C 581.157 339.334, 591.577 349.147, 596.366 357.335 C 599.682 363.005, 600.492 363.807, 602.061 362.967 C 603.775 362.050, 603.690 361.636, 600.695 356.361 C 594.778 345.938, 584.099 336.073, 572.290 330.122 C 567.174 327.543, 565.999 327.474, 566.004 329.750 M 597 341.031 C 597 342.149, 597.788 343.318, 598.750 343.630 C 610.368 347.396, 622.842 357.575, 628.861 368.201 C 631.072 372.103, 632.550 373.726, 633.545 373.344 C 635.586 372.561, 635.381 371.332, 632.334 366.088 C 626.143 355.435, 616.807 347.076, 604.917 341.541 C 598.343 338.481, 597 338.394, 597 341.031 M 646.248 383.898 C 641.898 387.337, 641.187 388.443, 640.213 393.293 C 638.603 401.311, 635.421 407.358, 630.351 412.031 C 624.504 417.420, 621.217 418.692, 608.539 420.472 C 602.739 421.286, 596.757 422.600, 595.247 423.391 C 585.626 428.432, 585.612 435.797, 595.226 434.732 C 597.577 434.471, 603.447 433.715, 608.270 433.051 C 621.837 431.183, 630.961 433.874, 638.832 442.066 L 642.734 446.126 664.880 445.881 L 687.026 445.636 684.440 442.937 C 680.859 439.199, 673.479 435.358, 665.895 433.284 C 660.476 431.803, 654.919 431.533, 629.500 431.518 C 613 431.508, 598.038 431.894, 596.250 432.375 C 591.154 433.747, 591.916 430.394, 597.250 427.973 C 600.934 426.301, 603.831 426.046, 619 426.057 C 665.943 426.093, 681.105 430.079, 691.184 445.034 C 693.210 448.040, 695.406 452.413, 696.064 454.750 C 696.722 457.087, 697.630 459, 698.083 459 C 700.876 459, 703.009 436.931, 701.083 427.953 C 697.413 410.838, 683.322 395.485, 661.191 384.488 C 656.223 382.020, 651.939 380, 651.669 380 C 651.400 380, 648.961 381.754, 646.248 383.898 M 649.667 391.667 C 648.272 393.062, 649.125 393.957, 652.793 394.944 C 658.018 396.351, 661.520 399.669, 659.874 401.652 C 658.254 403.604, 653.550 406, 651.337 406 C 650.039 406, 650.467 405.256, 652.966 403.169 C 656.782 399.984, 655.923 398.419, 650.958 399.509 C 647.849 400.192, 645 404.176, 645 407.842 C 645 414.007, 661.987 408.665, 664.425 401.734 C 665.217 399.481, 664.969 398.588, 662.938 396.386 C 659.214 392.348, 651.668 389.665, 649.667 391.667 M 406.211 405.750 C 397.375 429.088, 347.320 581.654, 348.208 582.542 C 348.416 582.750, 373.317 558.186, 403.543 527.955 L 458.500 472.990 458.500 460.507 L 458.500 448.023 439.834 466.668 C 423.681 482.802, 421.278 485.600, 421.981 487.449 C 422.981 490.081, 420.904 495.439, 418.529 496.350 C 415.136 497.652, 411.324 496.974, 409.174 494.686 C 404.446 489.652, 408.018 482, 415.095 482 C 418.278 482, 420.299 480.256, 439.781 460.697 C 452.898 447.528, 461 438.648, 461 437.440 C 461 436.365, 463.230 430.940, 465.956 425.383 C 471.147 414.803, 479.639 404.614, 487 400.137 L 490.500 398.007 449.823 398.004 L 409.145 398 406.211 405.750 M 672.328 400.587 C 671.906 401.686, 673.740 403.997, 678.306 408.118 C 685.400 414.520, 691.189 424.243, 692.489 431.938 C 693.025 435.105, 693.617 436, 695.176 436 C 696.974 436, 697.103 435.572, 696.460 431.763 C 694.682 421.239, 689.910 412.910, 680.856 404.528 C 674.492 398.635, 673.290 398.080, 672.328 400.587 M 422.677 433.823 C 396.300 460.211, 393.054 463.800, 394.484 464.987 C 395.908 466.169, 399.672 462.765, 426.012 436.471 C 449.150 413.374, 455.678 406.317, 454.839 405.306 C 454.243 404.588, 453.470 404, 453.121 404 C 452.773 404, 439.073 417.420, 422.677 433.823 M 429.930 407.584 C 428.154 409.724, 429.941 412.500, 433.095 412.500 C 435.816 412.500, 436.843 409.721, 434.960 407.452 C 433.392 405.562, 431.568 405.610, 429.930 407.584 M 520.693 413.128 C 511.444 414.318, 497.930 419.564, 489.248 425.335 C 482.852 429.587, 468 444.138, 468 446.152 C 468 446.580, 468.865 447.393, 469.922 447.958 C 471.543 448.826, 472.174 448.455, 473.938 445.600 C 477.680 439.546, 489.190 429.644, 497.529 425.306 C 506.048 420.874, 518.948 417, 525.188 417 C 528.587 417, 529 416.729, 529 414.500 C 529 413.125, 528.663 412.057, 528.250 412.126 C 527.837 412.196, 524.437 412.647, 520.693 413.128 M 417.040 420.452 C 414.958 422.961, 416.195 425.500, 419.500 425.500 C 421.566 425.500, 422.578 424.952, 422.819 423.702 C 423.216 421.640, 421.352 419, 419.500 419 C 418.810 419, 417.703 419.653, 417.040 420.452 M 404.075 433.409 C 402.190 435.681, 403.688 439, 406.599 439 C 409.416 439, 410.802 436.496, 409.302 434.114 C 407.919 431.917, 405.576 431.601, 404.075 433.409 M 442.250 432.662 C 440.482 433.376, 440.697 437.504, 442.584 439.070 C 445.701 441.657, 449.608 436.642, 446.960 433.452 C 445.732 431.972, 444.480 431.762, 442.250 432.662 M 617.352 443.611 C 604.818 451.467, 598.525 456.339, 590.460 464.434 C 574.227 480.728, 568.126 495.640, 567.315 521 L 566.852 535.500 586.528 555 C 609.117 577.386, 608.381 577.531, 599.273 552.500 C 591.648 531.546, 589.997 524.518, 590.015 513.090 C 590.034 500.776, 591.949 492.849, 597.497 482.125 C 601.929 473.556, 611.190 461, 613.077 461 C 615.803 461, 614.655 464.414, 609.997 470.157 C 603.625 478.012, 596.522 492.444, 594.931 500.765 C 594.248 504.338, 593.937 511.211, 594.206 516.765 C 594.612 525.126, 595.351 528.406, 599.443 540 C 602.063 547.425, 605.947 558.900, 608.072 565.500 C 610.198 572.100, 612.289 578.404, 612.719 579.508 C 613.149 580.612, 619.156 587.020, 626.068 593.747 L 638.636 605.978 637.788 598.739 C 636.503 587.762, 632.364 573.723, 626.809 561.500 C 612.693 530.439, 610.018 521.437, 610.007 504.960 C 609.994 485.599, 614.931 474.114, 629.728 459.080 C 634.828 453.898, 639 449.441, 639 449.174 C 639 447.522, 633.273 441.670, 630.044 440.023 L 626.204 438.063 617.352 443.611 M 377.250 560.211 C 361.163 576.245, 347.994 589.619, 347.987 589.932 C 347.979 590.244, 361.142 603.372, 377.237 619.103 L 406.500 647.707 406.765 618.282 C 406.911 602.098, 406.911 575.852, 406.765 559.958 L 406.500 531.058 377.250 560.211 M 429.243 535.157 C 426.344 538.056, 428.936 542.430, 433.195 541.827 C 435.100 541.557, 435.500 540.893, 435.500 538 C 435.500 535.009, 435.136 534.457, 432.993 534.207 C 431.614 534.046, 429.927 534.473, 429.243 535.157 M 485.238 546.162 C 482.084 549.316, 485.885 554.267, 489.457 551.655 C 491.801 549.941, 491.148 545.593, 488.488 545.212 C 487.382 545.053, 485.919 545.481, 485.238 546.162 M 530.431 598.111 C 530.032 598.757, 536.318 605.805, 545.448 614.948 C 560.879 630.401, 561.140 630.735, 560.497 634.166 C 559.211 641.018, 567.748 646.817, 573.087 642.718 C 579.678 637.658, 576.372 628, 568.049 628 C 564.771 628, 563.199 626.721, 549 612.500 C 540.488 603.975, 532.983 597, 532.321 597 C 531.659 597, 530.809 597.500, 530.431 598.111 M 565.667 632.667 C 565.300 633.033, 565 634.600, 565 636.148 C 565 639.805, 569.523 641.373, 571.656 638.456 C 573.375 636.105, 573.346 635.489, 571.429 633.571 C 569.811 631.954, 566.845 631.488, 565.667 632.667" stroke="none" fill="white" fill-rule="evenodd"/>
<!-- ojo redondo: pupila negra (80%) + diafragma de 7 láminas tangentes + mira blanca -->
<circle cx="578" cy="391" r="21" fill="#080c12"/>
<g clip-path="url(#fx-iris)" transform="translate(578 391) scale(1.31)" stroke="white" stroke-width="1.3" fill="none" stroke-linecap="round">
  <!-- 7 chordas tangentes a la apertura central (a=4) sobre el borde (b=14) → diafragma -->
  <line x1="4" y1="13.42" x2="4" y2="-13.42"/>
  <line x1="-7.99" y1="11.49" x2="12.98" y2="-5.24"/>
  <line x1="-13.97" y1="0.92" x2="12.19" y2="6.89"/>
  <line x1="-9.43" y1="-10.35" x2="2.22" y2="13.82"/>
  <line x1="2.22" y1="-13.82" x2="-9.43" y2="10.35"/>
  <line x1="12.19" y1="-6.89" x2="-13.97" y2="-0.92"/>
  <line x1="12.98" y1="5.24" x2="-7.99" y2="-11.49"/>
</g>
<!-- punto de mira central blanco -->
<circle cx="578" cy="391" r="3.9" fill="white"/>
</svg>